PathFileType	4	(X/Y/Z)	s11c0303.trc
DataRate	CameraRate	NumFrames	NumMarkers	Units	OrigDataRate	OrigDataStartFrame	OrigNumFrames
200	200	6	48	mm	200	1500	2000
Frame#	Time	racr			lacr			c7			jug			rlel			rdr			llel			ldr			s2			lic			ric			lasi			rasi			rpsi			lpsi			rgt			lgt			rth1			rth2			rth3			rth4			rlfc			rmfc			rsh1			rsh2			rsh3			rsh4			rlmal			rcal			rtoe			rmt5			lth1			lth2			lth4			lth3			llfc			lmfc			llmal			lcal			lmt5			lsh1			lsh2			lsh3			lsh4			ltoe			SBIKE			LBIKE			RBIKE			
		X1	Y1	Z1	X2	Y2	Z2	X3	Y3	Z3	X4	Y4	Z4	X5	Y5	Z5	X6	Y6	Z6	X7	Y7	Z7	X8	Y8	Z8	X9	Y9	Z9	X10	Y10	Z10	X11	Y11	Z11	X12	Y12	Z12	X13	Y13	Z13	X14	Y14	Z14	X15	Y15	Z15	X16	Y16	Z16	X17	Y17	Z17	X18	Y18	Z18	X19	Y19	Z19	X20	Y20	Z20	X21	Y21	Z21	X22	Y22	Z22	X23	Y23	Z23	X24	Y24	Z24	X25	Y25	Z25	X26	Y26	Z26	X27	Y27	Z27	X28	Y28	Z28	X29	Y29	Z29	X30	Y30	Z30	X31	Y31	Z31	X32	Y32	Z32	X33	Y33	Z33	X34	Y34	Z34	X35	Y35	Z35	X36	Y36	Z36	X37	Y37	Z37	X38	Y38	Z38	X39	Y39	Z39	X40	Y40	Z40	X41	Y41	Z41	X42	Y42	Z42	X43	Y43	Z43	X44	Y44	Z44	X45	Y45	Z45	X46	Y46	Z46	X47	Y47	Z47	X48	Y48	Z48	
1500	7.5000	853.325017	1358.334681	-74.427014	837.613616	1417.566025	-440.654156	827.205938	1492.339751	-248.378412	825.552529	1306.804478	-278.638089	665.953321	1146.247694	25.263174	802.513428	932.493772	-74.671473	632.368683	1168.581759	-527.008764	802.438511	919.371114	-468.167855	231.225222	1274.612189	-251.834597	449.417973	1298.759731	-448.731095	460.405166	1220.520837	-60.753008	470.418335	1215.220298	-419.927276	479.675342	1167.386042	-105.740420	290.966801	1335.543121	-185.419183	285.124257	1344.841782	-276.371699	337.455925	1092.530766	-53.335276	360.574844	1177.669956	-472.548426	352.117575	962.797615	-51.150297	381.371195	879.312570	-66.691868	366.447829	795.296225	-85.949973	417.277834	884.373233	-74.227132	380.362670	695.715821	-108.904049	372.193255	674.179001	-231.312869	314.069559	553.705306	-86.988388	303.942592	466.896882	-100.539525	253.684664	395.626011	-98.853355	329.635686	459.389044	-129.999968	199.281276	268.435004	-105.246579	136.386403	280.607078	-153.807058	379.734827	126.056722	-147.868782	305.063329	131.977632	-78.615477	476.568571	1084.729613	-488.004554	550.893918	1042.214157	-479.983940	574.549636	1064.282269	-461.340824	597.104947	964.912590	-484.777586	665.282288	849.707919	-462.371984	669.781003	832.680635	-331.911703	292.557960	644.281164	-428.976478	238.561667	671.077616	-392.368007	273.778128	464.670684	-450.510595	559.263842	789.594192	-477.934487	501.014573	729.000600	-460.721350	416.991798	702.345753	-453.963454	520.385238	703.830104	-439.551536	332.893539	387.257644	-384.738357	-215.092881	949.671437	-255.352610	-17.790298	81.084844	-460.671806	-17.836911	80.865275	-61.884290	
1501	7.5050	855.050042	1361.377503	-77.377284	835.934929	1419.427383	-443.115497	827.438377	1493.690437	-251.771223	824.756213	1307.796977	-280.836252	669.229680	1148.352315	24.061887	803.066857	932.429893	-74.538505	632.362436	1168.451369	-529.039473	802.616646	919.527068	-468.481937	231.958089	1274.533667	-249.088874	447.811828	1301.056674	-448.871740	463.160788	1221.201218	-61.111313	468.983145	1216.601343	-419.847505	480.851216	1168.700883	-107.539016	292.839166	1335.444483	-180.767537	284.926667	1344.963591	-273.400735	338.764931	1092.333855	-53.084974	360.399598	1180.006179	-471.683068	351.025240	963.279041	-50.379852	380.070526	879.870496	-64.775794	362.648293	795.741157	-84.940722	414.829939	884.020091	-74.003496	375.053452	695.872448	-108.727167	364.659922	675.072232	-232.362367	306.894085	554.405604	-86.534376	296.711758	467.731288	-100.010919	246.272874	396.476138	-98.711218	322.596339	459.768370	-129.471627	191.651568	269.443071	-105.069965	129.602614	282.994151	-153.691663	369.729795	123.157107	-147.580478	294.922079	130.217770	-78.612738	477.712081	1087.953256	-486.830672	552.616614	1046.375336	-479.117393	576.078874	1068.849628	-460.682291	600.211576	970.361245	-485.604160	671.349338	855.415910	-461.331680	676.074197	838.171563	-330.275763	301.195965	645.442736	-428.704343	246.550841	671.690524	-392.607400	284.575158	465.832687	-450.633309	566.611516	794.906695	-476.825737	508.914188	733.501276	-460.102924	425.168891	705.973872	-453.407906	528.534683	708.327209	-439.115233	344.526056	389.260333	-384.832316	-215.183088	949.668153	-255.365331	-17.781440	81.086289	-460.685040	-17.780422	80.866753	-61.813508	
1502	7.5100	856.614606	1364.384077	-80.167304	834.409927	1420.764240	-445.472546	827.747130	1494.376701	-254.972087	823.826347	1308.698039	-282.814608	672.213295	1150.267205	22.693990	803.989636	932.727177	-74.638125	632.265665	1168.368415	-531.304592	802.760906	919.793870	-468.778174	232.405132	1274.596847	-246.316815	446.184749	1303.430520	-449.075952	465.737035	1221.890649	-61.623285	467.241445	1218.056367	-419.639843	482.146983	1170.279138	-108.898139	295.143935	1335.555103	-173.354140	284.826132	1345.366434	-269.947627	340.276466	1092.404268	-52.647618	360.127535	1182.215169	-470.763578	350.401691	964.428495	-49.214204	377.822872	880.443769	-64.308942	359.490925	796.676493	-83.966719	413.023648	884.208577	-73.763634	370.525303	696.421109	-108.359112	358.229501	677.224017	-233.773414	300.689027	555.450104	-85.915946	290.294995	468.774508	-99.462950	239.415982	397.827481	-98.617738	315.551921	460.831031	-128.773028	184.411222	271.202918	-104.937904	122.845023	286.813157	-153.349723	359.078904	120.663124	-148.004608	284.476096	129.986735	-78.225310	478.576556	1090.822314	-486.123945	553.933999	1050.339985	-478.408178	577.268590	1073.173741	-460.298163	602.525956	974.877561	-485.029388	677.027627	861.086962	-460.168150	682.099036	844.040337	-329.057315	309.931258	646.330417	-429.198785	254.342940	671.547598	-392.871489	295.565251	466.348248	-450.665732	573.429121	799.815014	-476.083470	516.805380	737.361468	-459.432043	433.398449	708.712007	-452.828634	536.688171	712.414906	-438.469024	356.552461	390.747942	-385.054091	-215.253785	949.666833	-255.438647	-17.792016	81.080646	-460.688273	-17.777970	80.894302	-61.831478	
1503	7.5150	858.077152	1367.167374	-82.991677	832.918474	1421.628250	-447.910999	828.126881	1494.696830	-258.058385	822.837997	1309.174397	-284.766941	674.915263	1152.161853	21.331282	804.221318	932.848321	-74.419376	632.042917	1168.368276	-533.746180	802.394226	920.640608	-469.966116	232.632219	1274.728946	-243.558103	444.516994	1305.620741	-449.225041	468.134406	1222.479057	-62.628909	465.408626	1219.989597	-419.354355	483.392960	1171.124676	-109.890394	293.863824	1336.759599	-175.024433	284.501889	1345.871294	-267.073076	341.803563	1092.917806	-51.859217	359.816588	1184.509720	-470.258383	350.100246	965.853173	-48.012540	376.532483	881.635919	-63.372179	357.088243	798.006111	-83.025557	411.682862	885.125912	-73.025818	367.017703	697.180090	-107.755517	353.487041	679.795009	-234.657479	295.617963	556.620005	-85.224949	284.664668	470.002699	-98.819174	233.290108	399.462988	-98.227640	310.154675	461.978107	-127.939172	177.559365	273.456133	-104.682073	116.659887	290.558685	-153.251271	348.608174	118.692187	-147.928604	274.399604	129.791947	-78.267319	479.236716	1093.392054	-485.544475	554.565648	1053.425930	-476.855178	577.996099	1077.077540	-459.952399	604.470148	978.912850	-484.361820	682.318392	866.828282	-458.857944	687.828957	849.749639	-327.613765	318.362116	646.130134	-429.332379	261.897874	670.798326	-393.062722	306.368463	466.238725	-450.735632	580.326159	804.091036	-474.875268	524.620413	740.600449	-458.617683	441.692220	710.545312	-452.340151	544.820857	716.021013	-437.575553	368.294908	391.434590	-384.974403	-215.261695	949.685055	-255.493276	-17.774636	81.104440	-460.700482	-17.784891	80.914923	-61.833835	
1504	7.5200	859.389864	1369.801360	-85.599735	831.543309	1421.902347	-450.462015	828.523888	1494.644220	-260.906650	821.872489	1309.454984	-286.711301	677.351736	1153.964335	19.936484	804.639999	933.045358	-74.304728	631.630791	1168.368411	-536.401870	802.352882	921.116928	-470.250444	232.672157	1275.134942	-240.901688	442.708074	1307.891271	-449.282633	470.419962	1223.180427	-63.558612	463.610304	1221.913076	-419.033339	484.670550	1171.691859	-110.575351	294.131135	1337.430271	-173.500456	284.084047	1346.534370	-264.321777	343.314693	1093.805518	-50.842035	359.442507	1186.850262	-470.045669	350.222390	967.667944	-46.885454	375.052100	883.017201	-63.088451	355.365315	799.866777	-81.804380	411.023284	886.378059	-72.279312	364.581321	698.135358	-107.025614	350.587190	682.363858	-234.720540	291.815862	558.014004	-84.476488	279.936195	471.716077	-98.297034	227.856984	401.642017	-97.789053	305.503941	463.259134	-127.197656	171.040282	276.464849	-104.297317	110.872147	295.001931	-153.256823	338.092386	117.128644	-147.945880	264.231242	130.342962	-78.163318	479.592527	1095.636809	-485.385220	555.242166	1056.514932	-476.376929	577.843312	1080.310604	-460.324021	605.947890	982.359789	-483.591960	687.106980	872.548028	-457.586646	693.182232	855.468511	-326.062762	326.510517	645.312684	-429.745316	269.118910	669.374632	-393.202062	317.112552	465.522143	-450.767066	586.766856	807.817702	-473.851424	532.244011	743.228701	-457.774263	449.913580	711.503269	-451.815126	552.813432	719.234640	-436.419193	380.065607	391.595886	-385.003337	-215.280908	949.707597	-255.598886	-17.795177	81.120187	-460.714531	-17.771677	80.963384	-61.861876	
1505	7.5250	860.701464	1371.945523	-88.100717	830.286746	1421.470312	-452.970017	828.859395	1494.456707	-263.790654	820.902222	1309.258944	-288.514511	679.624184	1155.531779	18.686086	804.981732	933.318588	-74.200086	631.108155	1168.374510	-539.220267	802.170850	921.678043	-470.752024	232.613720	1275.844628	-238.504152	440.870750	1310.019491	-449.302296	472.654702	1224.087439	-64.373898	461.828108	1224.019386	-418.878640	486.034366	1172.166861	-111.138323	294.463707	1337.935388	-172.236921	283.558157	1347.434552	-261.653802	344.793310	1094.893551	-49.665532	358.971014	1188.875869	-469.546214	350.743703	969.807161	-45.889528	375.489802	884.850960	-61.453520	354.460981	801.906638	-80.647900	410.836547	887.940983	-71.409656	363.460770	699.270754	-106.070701	349.668681	684.340194	-233.703086	289.299419	559.693524	-83.633737	276.203206	473.595129	-97.594599	223.214983	404.227272	-97.214189	301.629900	464.734686	-126.533974	164.807881	280.019336	-104.001193	105.379080	300.129043	-153.120668	327.557768	116.365889	-147.921903	254.231641	131.544038	-78.112966	479.672568	1097.651267	-485.117884	555.726810	1059.147418	-476.018458	576.190063	1083.406773	-461.627599	607.069431	985.558683	-482.758094	691.422333	878.155275	-456.365893	698.475169	860.995103	-323.820522	334.345378	643.768746	-429.838433	276.351030	667.191104	-393.200844	327.818988	464.314046	-450.885049	592.724989	811.021803	-472.870290	539.643230	745.202514	-456.572347	457.894243	711.868585	-451.303468	560.432811	722.010758	-434.900984	391.916996	391.411835	-385.042825	-215.279780	949.742854	-255.715199	-17.796475	81.160737	-460.708586	-17.769390	81.006505	-61.879651	
